<?xml version="1.0" standalone="no"?>
<!DOCTYPE svg PUBLIC "-//W3C//DTD SVG 20010904//EN"
 "http://www.w3.org/TR/2001/REC-SVG-20010904/DTD/svg10.dtd">
<svg version="1.0" xmlns="http://www.w3.org/2000/svg"
 width="500.000000pt" height="500.000000pt" viewBox="0 0 500.000000 500.000000"
 preserveAspectRatio="xMidYMid meet">

<g transform="translate(0.000000,500.000000) scale(0.100000,-0.100000)"
fill="#000000" stroke="none">
<path d="M2395 3740 c-146 -30 -309 -134 -385 -245 -15 -22 -37 -66 -49 -98
-47 -127 -15 -315 73 -434 45 -60 162 -173 171 -165 3 3 5 -2 5 -10 0 -13 -7
-14 -33 -9 -81 19 -175 108 -231 219 -57 114 -80 276 -51 368 14 42 -28 -21
-66 -102 -47 -99 -63 -193 -56 -330 4 -86 9 -111 35 -165 17 -35 45 -81 62
-101 45 -54 152 -114 244 -138 151 -38 279 -20 446 62 120 59 127 61 127 41 0
-17 -83 -85 -136 -113 -183 -93 -458 -80 -614 29 -33 24 -57 35 -57 27 0 -23
80 -137 134 -192 109 -108 238 -172 367 -181 139 -10 254 35 370 145 108 101
179 265 179 413 l0 67 25 -11 c23 -11 25 -17 25 -86 0 -224 -152 -452 -360
-538 l-55 -23 44 0 c86 0 176 22 267 65 117 56 217 153 272 264 36 72 37 79
37 180 0 159 -39 249 -167 381 -78 82 -88 98 -53 95 36 -4 56 -19 128 -93 108
-112 157 -250 144 -404 -3 -37 -4 -68 -1 -68 14 0 76 156 89 224 52 273 -42
473 -272 577 -54 24 -87 32 -159 36 -144 9 -253 -17 -378 -89 -27 -16 -51 -26
-54 -23 -14 14 33 75 77 98 199 107 451 96 639 -28 28 -20 52 -31 52 -26 0 33
-157 205 -232 255 -79 53 -210 96 -292 96 -137 0 -275 -60 -373 -164 -111
-116 -153 -223 -153 -387 0 -57 -3 -67 -19 -72 -23 -6 -31 25 -31 122 0 219
133 410 360 515 l55 26 -55 -1 c-30 -1 -73 -5 -95 -9z"/>
<path d="M1530 1750 l0 -180 30 0 30 0 0 60 0 60 39 0 c35 0 41 -4 75 -55 40
-60 51 -68 90 -63 l25 3 -40 63 c-40 64 -41 64 -20 79 26 17 51 64 51 94 0 37
-41 97 -73 109 -17 5 -70 10 -118 10 l-89 0 0 -180z m192 93 c21 -18 24 -53 6
-71 -7 -7 -39 -12 -75 -12 l-63 0 0 50 0 50 57 0 c38 0 62 -5 75 -17z"/>
<path d="M2049 1843 c-23 -49 -52 -113 -64 -143 -13 -30 -30 -72 -39 -92 l-16
-38 33 0 c30 0 36 5 52 40 l18 40 78 0 79 0 17 -37 c16 -33 23 -38 56 -41 20
-2 37 -1 37 1 0 3 -30 69 -66 148 -36 79 -72 159 -80 177 -10 24 -20 32 -38
32 -22 0 -31 -12 -67 -87z m111 -115 c0 -5 -23 -8 -50 -8 l-50 0 26 52 26 52
24 -44 c13 -25 23 -48 24 -52z"/>
<path d="M2473 1910 c-39 -23 -53 -48 -53 -93 0 -46 30 -71 115 -94 60 -16 70
-22 73 -43 7 -49 -72 -68 -121 -29 -26 20 -27 20 -51 2 -32 -23 -29 -33 20
-60 47 -27 121 -30 165 -7 57 29 73 119 29 159 -10 9 -49 24 -87 33 -57 14
-69 21 -71 40 -2 13 2 30 8 38 16 19 70 18 98 -2 21 -15 25 -15 43 2 26 23 24
31 -13 54 -43 26 -113 26 -155 0z"/>
<path d="M2830 1749 l0 -180 33 3 32 3 3 73 3 72 79 0 80 0 0 -75 0 -75 35 0
35 0 0 180 0 180 -35 0 -35 0 0 -75 0 -75 -80 0 -80 0 0 75 0 75 -35 0 -35 0
0 -181z"/>
<path d="M3401 1908 c-5 -13 -31 -70 -59 -128 -52 -111 -92 -200 -92 -206 0
-2 16 -4 36 -4 32 0 37 4 51 40 l16 40 78 0 79 0 20 -40 c18 -35 25 -40 55
-40 19 0 35 1 35 3 0 2 -33 75 -73 163 -41 87 -77 167 -80 177 -10 26 -55 22
-66 -5z m73 -173 c5 -18 2 -20 -39 -17 -25 2 -45 7 -45 10 0 3 10 26 22 50
l21 45 17 -34 c10 -19 20 -43 24 -54z"/>
</g>
</svg>
